<mxfile host="app.diagrams.net" agent="Mozilla/5.0 (X11; Linux x86_64) AppleWebKit/537.36 (KHTML, like Gecko) Chrome/136.0.0.0 Safari/537.36" version="27.1.1">
  <diagram name="Page-1" id="Z2c1XPwL7gk2Sq_vbX5X">
    <mxGraphModel dx="1158" dy="618" grid="1" gridSize="10" guides="1" tooltips="1" connect="1" arrows="1" fold="1" page="1" pageScale="1" pageWidth="850" pageHeight="1100" math="0" shadow="0">
      <root>
        <mxCell id="0" />
        <mxCell id="1" parent="0" />
        <mxCell id="xn0co1EgoNSOZvKsrCmK-13" value="" style="rounded=0;whiteSpace=wrap;html=1;fillColor=none;" vertex="1" parent="1">
          <mxGeometry x="80" y="80" width="480" height="300" as="geometry" />
        </mxCell>
        <mxCell id="xn0co1EgoNSOZvKsrCmK-25" value="" style="group" vertex="1" connectable="0" parent="1">
          <mxGeometry x="200" y="140" width="360" height="240" as="geometry" />
        </mxCell>
        <mxCell id="xn0co1EgoNSOZvKsrCmK-14" value="" style="rounded=0;whiteSpace=wrap;html=1;fillColor=none;" vertex="1" parent="xn0co1EgoNSOZvKsrCmK-25">
          <mxGeometry width="120" height="240" as="geometry" />
        </mxCell>
        <mxCell id="xn0co1EgoNSOZvKsrCmK-15" value="" style="rounded=0;whiteSpace=wrap;html=1;fillColor=none;" vertex="1" parent="xn0co1EgoNSOZvKsrCmK-25">
          <mxGeometry x="120" width="120" height="240" as="geometry" />
        </mxCell>
        <mxCell id="xn0co1EgoNSOZvKsrCmK-16" value="" style="rounded=0;whiteSpace=wrap;html=1;fillColor=none;" vertex="1" parent="xn0co1EgoNSOZvKsrCmK-25">
          <mxGeometry x="240" width="120" height="240" as="geometry" />
        </mxCell>
        <mxCell id="xn0co1EgoNSOZvKsrCmK-17" value="" style="rounded=0;whiteSpace=wrap;html=1;fillColor=none;" vertex="1" parent="xn0co1EgoNSOZvKsrCmK-25">
          <mxGeometry width="359" height="60" as="geometry" />
        </mxCell>
        <mxCell id="xn0co1EgoNSOZvKsrCmK-20" value="" style="rounded=0;whiteSpace=wrap;html=1;fillColor=none;" vertex="1" parent="xn0co1EgoNSOZvKsrCmK-25">
          <mxGeometry y="120" width="359" height="60" as="geometry" />
        </mxCell>
        <mxCell id="xn0co1EgoNSOZvKsrCmK-18" value="" style="rounded=0;whiteSpace=wrap;html=1;fillColor=none;" vertex="1" parent="xn0co1EgoNSOZvKsrCmK-25">
          <mxGeometry y="180" width="359" height="60" as="geometry" />
        </mxCell>
        <mxCell id="xn0co1EgoNSOZvKsrCmK-19" value="" style="rounded=0;whiteSpace=wrap;html=1;fillColor=none;" vertex="1" parent="xn0co1EgoNSOZvKsrCmK-25">
          <mxGeometry y="60" width="359" height="60" as="geometry" />
        </mxCell>
        <mxCell id="xn0co1EgoNSOZvKsrCmK-3" value="Продажи в офисах" style="rounded=0;whiteSpace=wrap;html=1;" vertex="1" parent="1">
          <mxGeometry x="200" y="80" width="120" height="60" as="geometry" />
        </mxCell>
        <mxCell id="xn0co1EgoNSOZvKsrCmK-5" value="Фронт-офис" style="rounded=0;whiteSpace=wrap;html=1;" vertex="1" parent="1">
          <mxGeometry x="80" y="140" width="120" height="60" as="geometry" />
        </mxCell>
        <mxCell id="xn0co1EgoNSOZvKsrCmK-6" value="Отдел кредитования" style="rounded=0;whiteSpace=wrap;html=1;" vertex="1" parent="1">
          <mxGeometry x="80" y="260" width="120" height="60" as="geometry" />
        </mxCell>
        <mxCell id="xn0co1EgoNSOZvKsrCmK-7" value="Отдел депозитов" style="rounded=0;whiteSpace=wrap;html=1;" vertex="1" parent="1">
          <mxGeometry x="80" y="200" width="120" height="60" as="geometry" />
        </mxCell>
        <mxCell id="xn0co1EgoNSOZvKsrCmK-8" value="АБС" style="rounded=0;whiteSpace=wrap;html=1;" vertex="1" parent="1">
          <mxGeometry x="80" y="320" width="120" height="60" as="geometry" />
        </mxCell>
        <mxCell id="xn0co1EgoNSOZvKsrCmK-9" value="Продажи через колл-центр" style="rounded=0;whiteSpace=wrap;html=1;" vertex="1" parent="1">
          <mxGeometry x="320" y="80" width="120" height="60" as="geometry" />
        </mxCell>
        <mxCell id="xn0co1EgoNSOZvKsrCmK-11" value="Оповещение клиентов" style="rounded=0;whiteSpace=wrap;html=1;" vertex="1" parent="1">
          <mxGeometry x="440" y="80" width="120" height="60" as="geometry" />
        </mxCell>
        <mxCell id="xn0co1EgoNSOZvKsrCmK-21" value="IT ландшафт" style="rounded=0;whiteSpace=wrap;html=1;" vertex="1" parent="1">
          <mxGeometry x="80" y="80" width="120" height="60" as="geometry" />
        </mxCell>
        <mxCell id="xn0co1EgoNSOZvKsrCmK-22" value="Отправка СМС" style="rounded=1;whiteSpace=wrap;html=1;" vertex="1" parent="1">
          <mxGeometry x="446" y="325" width="108" height="50" as="geometry" />
        </mxCell>
        <mxCell id="xn0co1EgoNSOZvKsrCmK-23" value="&lt;div&gt;&lt;br&gt;&lt;/div&gt;&lt;div&gt;&lt;br&gt;&lt;/div&gt;&lt;div&gt;&lt;br&gt;&lt;/div&gt;&lt;div&gt;&lt;br&gt;&lt;/div&gt;&lt;div&gt;&lt;br&gt;&lt;/div&gt;&lt;div&gt;&lt;br&gt;&lt;/div&gt;&lt;div&gt;&lt;br&gt;&lt;/div&gt;&lt;div&gt;&lt;br&gt;&lt;/div&gt;&lt;div&gt;&lt;br&gt;&lt;/div&gt;&lt;div&gt;&lt;br&gt;&lt;/div&gt;&lt;div&gt;&lt;br&gt;&lt;/div&gt;&lt;div&gt;&lt;br&gt;&lt;/div&gt;&lt;div&gt;&lt;br&gt;&lt;/div&gt;Оформление по специальным ставкам" style="rounded=1;whiteSpace=wrap;html=1;arcSize=6;fillColor=default;align=center;" vertex="1" parent="1">
          <mxGeometry x="210" y="150" width="220" height="220" as="geometry" />
        </mxCell>
        <mxCell id="xn0co1EgoNSOZvKsrCmK-24" value="Оформление по обычным ставкам" style="rounded=1;whiteSpace=wrap;html=1;" vertex="1" parent="1">
          <mxGeometry x="214" y="153" width="209" height="187" as="geometry" />
        </mxCell>
      </root>
    </mxGraphModel>
  </diagram>
</mxfile>
